# xmcd
#
# Track frame offsets: 
#        150
#        14954
#        30019
#        53510
#        70870
#        83777
#        99414
#        112091
#        129338
#        152375
#
# Disc length: 2261 seconds
#
# Revision: 0
# Processed by: cddbd v1.5.2PL0 Copyright (c) Steve Scherf et al.
# Submitted via: ExactAudioCopy v0.95b4
#
DISCID=7008d30a
DTITLE=The Powder Kegs - The Seedhouse
DYEAR=2006
DGENRE=Bluegrass
TTITLE0=Hard Travelin'
TTITLE1=Cumberland Gap
TTITLE2=Take Another Shot (At Me)
TTITLE3=Lonesome Whistle
TTITLE4=Policeman
TTITLE5=Ol' Riley
TTITLE6=How Come You Do Me Like You Do
TTITLE7=June Apple
TTITLE8=Dead Flowers
TTITLE9=John Brown's Dream
EXTD=
EXTT0=
EXTT1=
EXTT2=
EXTT3=
EXTT4=
EXTT5=
EXTT6=
EXTT7=
EXTT8=
EXTT9=
PLAYORDER=
